<?xml version="1.0" encoding="utf-8"?>
<!-- Uploaded to: SVG Repo, www.svgrepo.com, Generator: SVG Repo Mixer Tools -->
<svg xmlns="http://www.w3.org/2000/svg" xmlns:xlink="http://www.w3.org/1999/xlink" version="1.1" id="key"  viewBox="0 0 224 204.0012" enable-background="new 0 0 224 204.0012" xml:space="preserve" width="512" height="512">
<g>
	<rect x="64" y="104.1775" fill="#5CB0FF" width="16" height="32"/>
	<rect x="24" y="104.1775" fill="#5CB0FF" width="16" height="32"/>
	<path fill="#D0E8FF" d="M180,44.1775c-19.8516,0-36,16.1504-36,36v4H8v12h8h32h8h32h56v27.998c0,19.8516,16.1484,36.002,36,36.002   s36-16.1504,36-36.002V80.1794C216,60.3279,199.8516,44.1775,180,44.1775z M208,120.1619c0,15.4473-12.5625,28.0156-28,28.0156   s-28-12.5684-28-28.0156V84.1931c0-15.4473,12.5625-28.0156,28-28.0156s28,12.5684,28,28.0156V120.1619z"/>
	<path fill="#1C71DA" d="M180,36.1775c-22.9141,0-41.793,17.6055-43.8203,40H0v28h16v40h32v-40h8v40h32v-40h48v19.998   c0,24.2637,19.7383,44.002,44,44.002s44-19.7383,44-44.002V80.1794C224,55.9158,204.2617,36.1775,180,36.1775z M40,136.1775H24v-32   h16V136.1775z M80,136.1775H64v-32h16V136.1775z M216,124.1755c0,19.8516-16.1484,36.002-36,36.002s-36-16.1504-36-36.002v-27.998   H88H56h-8H16H8v-12h136v-4c0-19.8496,16.1484-36,36-36s36,16.1504,36,36.002V124.1755z"/>
	<path fill="#1C71DA" d="M180,56.1775c-15.4375,0-28,12.5684-28,28.0156v35.9688c0,15.4473,12.5625,28.0156,28,28.0156   s28-12.5684,28-28.0156V84.1931C208,68.7458,195.4375,56.1775,180,56.1775z M200,120.1619c0,11.0371-8.9727,20.0156-20,20.0156   s-20-8.9785-20-20.0156V84.1931c0-11.0371,8.9727-20.0156,20-20.0156s20,8.9785,20,20.0156V120.1619z"/>
</g>
<path fill="#FF5D5D" d="M28.252,40.0012c-1.0234,0-2.0469-0.3906-2.8281-1.1714c-1.5625-1.5625-1.5625-4.0952,0-5.6572  l14.1426-14.1421c1.5605-1.5615,4.0938-1.5615,5.6562,0c1.5625,1.5625,1.5625,4.0952,0,5.6572L31.0801,38.8298  C30.2998,39.6106,29.2754,40.0012,28.252,40.0012z"/>
<path fill="#FF5D5D" d="M42.3945,39.9998c-1.0234,0-2.0479-0.3906-2.8281-1.1714L25.4238,24.6858  c-1.5625-1.5625-1.5625-4.0947,0-5.6572c1.5605-1.5615,4.0957-1.5615,5.6562,0l14.1426,14.1426  c1.5625,1.5625,1.5625,4.0947,0,5.6572C44.4424,39.6091,43.418,39.9998,42.3945,39.9998z"/>
<path fill="#00D40B" d="M126.252,204.0012c-7.7197,0-14-6.2803-14-14s6.2803-14,14-14s14,6.2803,14,14  S133.9717,204.0012,126.252,204.0012z M126.252,184.0012c-3.3086,0-6,2.6914-6,6s2.6914,6,6,6s6-2.6914,6-6  S129.5605,184.0012,126.252,184.0012z"/>
<path fill="#FFC504" d="M127.5664,30.6267c-1.0234,0-2.0469-0.3906-2.8281-1.1714l-11.3145-11.3135  c-0.75-0.75-1.1719-1.7676-1.1719-2.8286s0.4219-2.0786,1.1719-2.8286l11.3145-11.3135c1.5625-1.5615,4.0938-1.5615,5.6562,0  l11.3135,11.3135c1.5625,1.5625,1.5625,4.0947,0,5.6572l-11.3135,11.3135C129.6143,30.2361,128.5898,30.6267,127.5664,30.6267z   M121.9092,15.3132l5.6572,5.6567l5.6562-5.6567l-5.6562-5.6567L121.9092,15.3132z"/>
</svg>